<?xml version="1.0" encoding="utf-8"?>
<svg xmlns="http://www.w3.org/2000/svg" style="margin: auto; display: block; shape-rendering: auto;" width="145" height="50" preserveAspectRatio="xMidYMid">
<style type="text/css">
  text {
    text-anchor: middle; font-size: 48px; opacity: 0;
  }
</style>
<g transform="translate(72.5,25)">
  <g transform="translate(-6,0)"><g class="path" style="transform-origin: -22.775px -3.24827px; transform: scale(0.91); animation: breath-52d9759e-3206-4da3-944a-aa1aeeee85ca 0.529101s linear -0.232804s infinite normal forwards running;"><path d="M19.63-15.02L19.63-15.02L19.58-20.74L19.58-20.74Q19.58-29.23 19.01-32.02L19.01-32.02L19.01-32.02Q18.91-32.35 18.91-32.54L18.91-32.54L18.91-32.54Q18.91-33.36 20.54-33.94L20.54-33.94L20.54-33.94Q22.18-34.51 23.14-34.51L23.14-34.51L23.14-34.51Q24.10-34.51 24.10-33.94L24.10-33.94L24.10-33.94Q24.10-33.89 24-33.41L24-33.41L24-33.41Q22.90-27.50 22.90-14.64L22.90-14.64L22.90-14.64Q22.90-5.86 23.90-2.02L23.90-2.02L23.90-2.02Q24.10-1.39 24.10-1.34L24.10-1.34L24.10-1.34Q24.10-0.34 21.89 0.31L21.89 0.31L21.89 0.31Q19.68 0.96 18.77 0.96L18.77 0.96L18.77 0.96Q17.33 0.96 16.80 0.29L16.80 0.29L16.80 0.29Q15.74-1.06 13.37-7.27L13.37-7.27L13.37-7.27Q10.99-13.49 9.22-18.86L9.22-18.86L7.39-24.24L7.39-24.24Q7.30-24.48 7.15-24.48L7.15-24.48L7.15-24.48Q6.96-24.48 6.72-24.14L6.72-24.14L6.72-24.14Q6.48-19.68 6.48-15.22L6.48-15.22L6.48-15.22Q6.48-10.75 6.55-8.35L6.55-8.35L6.55-8.35Q6.62-5.95 6.72-4.70L6.72-4.70L6.72-4.70Q6.82-3.46 6.91-2.71L6.91-2.71L6.91-2.71Q7.01-1.97 7.08-1.63L7.08-1.63L7.08-1.63Q7.15-1.30 7.15-1.15L7.15-1.15L7.15-1.15Q7.15-0.24 5.57 0.26L5.57 0.26L5.57 0.26Q3.98 0.77 2.71 0.77L2.71 0.77L2.71 0.77Q1.44 0.77 1.44 0.19L1.44 0.19L1.44 0.19Q1.44-0.10 1.58-0.53L1.58-0.53L1.58-0.53Q1.73-0.96 1.92-1.63L1.92-1.63L1.92-1.63Q2.40-3.31 2.59-7.75L2.59-7.75L2.59-7.75Q2.78-12.19 2.78-17.88L2.78-17.88L2.78-17.88Q2.78-23.57 2.64-26.16L2.64-26.16L2.64-26.16Q2.40-30.38 1.78-31.82L1.78-31.82L1.78-31.82Q1.63-31.97 1.63-32.21L1.63-32.21L1.63-32.21Q1.63-32.98 4.18-33.70L4.18-33.70L4.18-33.70Q6.72-34.42 8.14-34.42L8.14-34.42L8.14-34.42Q9.55-34.42 9.79-34.37L9.79-34.37L9.79-34.37Q10.46-34.42 10.61-33.60L10.61-33.60L10.61-33.60Q12-28.56 14.52-21.74L14.52-21.74L14.52-21.74Q17.04-14.93 19.01-11.33L19.01-11.33L19.01-11.33Q19.25-11.09 19.39-11.09L19.39-11.09L19.39-11.09Q19.63-11.09 19.63-15.02" fill="rgba(252, 9, 60, 0.7201612903225807)" stroke="none" stroke-width="none" transform="translate(-35.545013427734375,13.526732482910157)" style="fill: rgba(252, 9, 60, 0.72);"></path></g><g class="path" style="transform-origin: -1.05502px 3.08673px; transform: scale(0.91); animation: breath-52d9759e-3206-4da3-944a-aa1aeeee85ca 0.529101s linear -0.116402s infinite normal forwards running;"><path d="M31.54-12.19L31.54-12.19L31.58-10.99L31.58-10.99Q31.58-10.70 31.97-10.70L31.97-10.70L31.97-10.70Q33.50-10.85 34.66-11.50L34.66-11.50L34.66-11.50Q35.81-12.14 36.38-12.96L36.38-12.96L36.38-12.96Q37.54-14.74 37.63-16.03L37.63-16.03L37.68-16.61L37.68-16.61Q37.68-19.20 35.62-19.20L35.62-19.20L35.62-19.20Q34.08-19.20 33.12-17.86L33.12-17.86L33.12-17.86Q31.54-15.74 31.54-12.19zM42-5.81L42-5.81L42-5.81Q42-3.98 41.26-2.62L41.26-2.62L41.26-2.62Q40.51-1.25 39.58-0.60L39.58-0.60L39.58-0.60Q38.64 0.05 37.39 0.43L37.39 0.43L37.39 0.43Q35.81 0.91 34.37 0.91L34.37 0.91L34.37 0.91Q30.34 0.91 28.42-2.11L28.42-2.11L28.42-2.11Q26.50-5.14 26.50-9.82L26.50-9.82L26.50-9.82Q26.50-14.50 28.87-18.14L28.87-18.14L28.87-18.14Q31.25-21.79 36-21.79L36-21.79L36-21.79Q40.32-21.79 41.86-18.77L41.86-18.77L41.86-18.77Q42.48-17.62 42.48-16.58L42.48-16.58L42.48-16.58Q42.48-15.55 42.38-14.95L42.38-14.95L42.38-14.95Q42.29-14.35 41.71-13.15L41.71-13.15L41.71-13.15Q41.14-11.95 40.18-10.99L40.18-10.99L40.18-10.99Q39.22-10.03 37.15-9.17L37.15-9.17L37.15-9.17Q35.09-8.30 32.30-8.02L32.30-8.02L32.30-8.02Q31.92-8.02 31.92-7.68L31.92-7.68L31.92-7.68Q31.92-7.25 32.23-6.41L32.23-6.41L32.23-6.41Q32.54-5.57 32.93-4.99L32.93-4.99L32.93-4.99Q33.98-3.65 36.05-3.65L36.05-3.65L36.05-3.65Q38.11-3.65 39.55-4.99L39.55-4.99L39.55-4.99Q40.32-5.71 40.80-6.77L40.80-6.77L40.80-6.77Q40.99-7.15 41.30-7.15L41.30-7.15L41.30-7.15Q41.62-7.15 41.81-6.62L41.81-6.62L41.81-6.62Q42-6.10 42-5.81" fill="rgba(252, 9, 60, 0.7201612903225807)" stroke="none" stroke-width="none" transform="translate(-35.545013427734375,13.526732482910157)" style="fill: rgba(252, 9, 60, 0.72);"></path></g><g class="path" style="transform-origin: 22.08px 3.35174px; transform: scale(0.91); animation: breath-52d9759e-3206-4da3-944a-aa1aeeee85ca 0.529101s linear 0s infinite normal forwards running;"><path d="M62.35 0.96L62.35 0.96L62.35 0.96Q61.87 1.30 61.63 1.30L61.63 1.30L61.63 1.30Q61.10 1.30 60.91 0.86L60.91 0.86L60.91 0.86Q59.47-2.02 58.51-6.91L58.51-6.91L58.51-6.91Q58.46-7.10 58.37-7.10L58.37-7.10L58.08-6.91L58.08-6.91Q56.78-4.61 55.08-2.64L55.08-2.64L55.08-2.64Q53.38-0.67 52.32 0.14L52.32 0.14L51.26 0.96L51.26 0.96Q50.78 1.39 50.50 1.39L50.50 1.39L50.50 1.39Q49.97 1.39 49.78 0.91L49.78 0.91L49.78 0.91Q48.72-1.10 47.33-6.91L47.33-6.91L46.90-8.88L46.90-8.88Q45.98-13.10 45.05-15.65L45.05-15.65L45.05-15.65Q44.11-18.19 43.63-18.62L43.63-18.62L43.15-19.06L43.15-19.06Q42.72-19.20 42.72-19.54L42.72-19.54L42.72-19.54Q42.72-20.21 44.71-20.98L44.71-20.98L44.71-20.98Q46.70-21.74 47.81-21.74L47.81-21.74L47.81-21.74Q48.91-21.74 49.27-20.86L49.27-20.86L49.27-20.86Q49.63-19.97 50.40-15.89L50.40-15.89L50.40-15.89Q52.42-5.14 53.33-5.14L53.33-5.14L53.33-5.14Q53.62-5.14 53.98-5.64L53.98-5.64L53.98-5.64Q54.34-6.14 54.84-6.86L54.84-6.86L54.84-6.86Q55.34-7.58 56.21-9.36L56.21-9.36L56.21-9.36Q57.07-11.14 57.07-12.48L57.07-12.48L57.07-12.48Q57.07-12.72 56.74-14.23L56.74-14.23L56.74-14.23Q56.40-15.74 55.75-17.16L55.75-17.16L55.75-17.16Q55.10-18.58 54.72-18.77L54.72-18.77L54.72-18.77Q53.86-19.25 53.86-19.58L53.86-19.58L53.86-19.58Q53.86-20.16 55.82-20.95L55.82-20.95L55.82-20.95Q57.79-21.74 59.38-21.74L59.38-21.74L59.38-21.74Q60.10-21.74 60.38-20.88L60.38-20.88L60.38-20.88Q61.10-18.62 62.11-12.77L62.11-12.77L62.11-12.77Q63.41-5.28 64.51-5.28L64.51-5.28L64.51-5.28Q64.90-5.28 65.66-6.36L65.66-6.36L65.66-6.36Q66.43-7.44 67.18-9.50L67.18-9.50L67.18-9.50Q67.92-11.57 67.92-13.03L67.92-13.03L67.92-13.03Q67.92-14.50 67.80-15.29L67.80-15.29L67.80-15.29Q67.68-16.08 66.96-17.14L66.96-17.14L66.96-17.14Q66.24-18.19 65.33-18.36L65.33-18.36L65.33-18.36Q64.42-18.53 64.42-18.96L64.42-18.96L64.42-18.96Q64.42-19.63 66.41-20.69L66.41-20.69L66.41-20.69Q68.40-21.74 70.51-21.74L70.51-21.74L70.51-21.74Q72.53-21.74 72.53-17.71L72.53-17.71L72.53-17.71Q72.53-12.67 69.55-7.34L69.55-7.34L69.55-7.34Q66.58-2.02 62.35 0.96" fill="rgba(252, 9, 60, 0.7201612903225807)" stroke="none" stroke-width="none" transform="translate(-35.545013427734375,13.526732482910157)" style="fill: rgba(252, 9, 60, 0.72);"></path></g></g>
</g>
<style id="breath-52d9759e-3206-4da3-944a-aa1aeeee85ca" data-anikit="">@keyframes breath-52d9759e-3206-4da3-944a-aa1aeeee85ca
{
  0% {
    animation-timing-function: cubic-bezier(0.9647,0.2413,-0.0705,0.7911);
    transform: scale(0.9099999999999999);
  }
  51% {
    animation-timing-function: cubic-bezier(0.9226,0.2631,-0.0308,0.7628);
    transform: scale(1.02994);
  }
  100% {
    transform: scale(0.9099999999999999);
  }
}</style><style id="breath-52d9759e-3206-4da3-944a-aa1aeeee85ca" data-anikit="">@keyframes breath-52d9759e-3206-4da3-944a-aa1aeeee85ca
{
  0% {
    animation-timing-function: cubic-bezier(0.9647,0.2413,-0.0705,0.7911);
    transform: scale(0.9099999999999999);
  }
  51% {
    animation-timing-function: cubic-bezier(0.9226,0.2631,-0.0308,0.7628);
    transform: scale(1.02994);
  }
  100% {
    transform: scale(0.9099999999999999);
  }
}</style></svg>